<svg width="32" height="32" viewBox="0 0 32 32" fill="none" xmlns="http://www.w3.org/2000/svg">
<g clip-path="url(#clip0_23_28064)">
<path d="M31.942 0.0378933L31.948 5.34629C29.4903 5.31836 26.091 5.28445 22.0234 5.2625C15.2149 5.22859 13.6209 5.2645 11.5782 6.27591C10.7044 6.7088 6.91613 8.582 5.65536 12.9388C4.45045 17.1042 6.40544 20.6032 6.80641 21.2854C5.82692 22.9292 4.84743 24.573 3.86794 26.2148C2.93633 25.1575 0.534482 22.1472 0.0756583 17.5889C-0.347258 13.3977 1.115 10.2816 1.68753 9.10466C2.05658 8.3466 4.76365 2.97237 10.7403 0.72214C12.5776 0.0299137 13.7825 -0.0119789 22.3067 0.00198531C24.7664 0.00597508 28.048 0.0159495 31.942 0.0378933Z" fill="#6441A5"/>
<path d="M13.2073 16.308C14.1669 14.5445 15.1264 12.783 16.088 11.0195C21.3764 11.0395 26.6629 11.0614 31.9513 11.0814C31.9633 11.8175 31.9693 12.8209 31.9513 14.0198C31.9513 14.0198 31.9433 14.5206 31.9333 14.9315C31.7957 20.3317 30.4631 23.2741 30.4631 23.2741C29.0108 26.4819 26.4434 28.1995 25.0889 29.1072C23.882 29.9151 20.7221 31.9678 16.1917 31.9958C10.991 32.0277 7.38825 29.3705 6.28906 28.4888C8.09045 25.3289 9.89183 22.169 11.6932 19.0091L17.6659 19.0569L13.5884 26.2146C14.7055 26.5497 16.6286 26.9347 18.8589 26.3941C22.9384 25.4067 24.9532 22.0752 25.4879 21.0937C26.5332 19.1786 26.7606 17.3733 26.8145 16.3539C22.2801 16.3379 17.7437 16.3219 13.2093 16.306L13.2073 16.308Z" fill="#6441A5"/>
<path d="M28.186 6.95201C27.779 6.61488 27.2903 6.44531 26.7217 6.44531C26.2669 6.44531 25.8499 6.56102 25.4749 6.79442C25.0999 7.02782 24.8146 7.36895 24.6211 7.81979L25.9357 8.55391C26.1173 8.13897 26.3846 7.92951 26.7377 7.92951C26.9032 7.92951 27.0329 7.97539 27.1267 8.06716C27.2204 8.15693 27.2683 8.27662 27.2683 8.42624C27.2683 8.5559 27.2224 8.68956 27.1307 8.82322C27.0409 8.95688 26.8953 9.13043 26.6958 9.34787L25.0699 11.0635H27.0349L27.8388 10.2256C28.152 9.90245 28.3894 9.59325 28.553 9.3C28.7146 9.00675 28.7964 8.68757 28.7964 8.34046C28.7964 7.75396 28.5929 7.29114 28.186 6.95201Z" fill="#6441A5"/>
<path d="M30.6336 6.5332L29.0117 7.11372L29.3788 8.40241L30.4201 8.13909V11.0636H31.9482V6.5332H30.6336Z" fill="#6441A5"/>
</g>
<defs>
<clipPath id="clip0_23_28064">
<rect width="31.9601" height="32" fill="white"/>
</clipPath>
</defs>
</svg>
